Genre:Comedy | Family
Language:English
IMDb:http://www.imdb.com/title/tt1392197/
Source Video:NoGrp.Thanks
Encoder: Tony2
..............................................
General
Complete name : Marmaduke 2010 CAMRip XviD.FEEL-FREE
Format : AVI
Format/Info : Audio Video Interleave
File size : 780 MiB
Duration : 1h 21mn
Overall bit rate : 1 342 Kbps
...............................................
Video
Format : xvid
Codec ID : xvid
Duration : 1h 21mn
Bit rate : 1 200 Kbps
Width : 704 pixels
Height : 304 pixels
Display aspect ratio : 2.35:1
Frame rate : 29.970 fps
Resolution : 24 bits
Bits/(Pixel*Frame) : 0.187
Stream size : 697 MiB (89%)
...............................................
Audio
ID : 1
Format : MPEG Audio
Format version : Version 1
Format profile : Layer 3
Format settings, Mode : Joint stereo / MS Stereo
Codec ID : 55
Codec ID/Hint : MP3
Duration : 1h 21mn
Bit rate mode : Constant
Bit rate : 128 Kbps
Channel(s) : 2 channels
Sampling rate : 48.0 KHz
Resolution : 16 bits
Stream size : 74.4 MiB (10%)
Alignment : Aligned on interleaves
Interleave, duration : 24 ms (0.72 video frame)
Interleave, preload duration : 24 ms
...............................................
Plot: 
A suburban family moves to a new neighborhood with their large yet lovable Great Dane, who has a tendency to wreak havoc in his own oblivious way.
...................................................
Screens:
 
http://postimg.com/image/17000/16743.jpg

.......................................................